<svg width="321" height="201" viewBox="0 0 321 201" fill="none" xmlns="http://www.w3.org/2000/svg">
<path d="M244.545 102.278L213.823 92.8931L202.808 101.06L181.743 131.759L182.637 200.678H241.577L244.545 102.278Z" fill="#F2F2F7"/>
<path d="M182.637 201H241.577C241.756 201 241.899 200.857 241.934 200.678L244.903 102.278C244.903 102.135 244.796 101.992 244.652 101.956L213.895 92.5707C213.788 92.5349 213.68 92.5707 213.573 92.6065L202.558 100.774C202.522 100.809 202.486 100.809 202.486 100.845L181.457 131.544C181.421 131.615 181.385 131.687 181.385 131.759L182.279 200.678C182.315 200.857 182.458 201 182.637 201ZM241.255 200.319H182.995L182.1 131.866L203.058 101.311L213.895 93.2871L244.223 102.529L241.255 200.319Z" fill="#231A47"/>
<path d="M149.412 107.723L137.466 87.5558C137.466 87.5558 134.748 72.8335 133.818 65.8843C132.888 58.9351 132.209 52.3799 131.923 49.7291C131.637 47.0784 128.74 45.6814 127.774 49.7291C126.808 53.8127 127.881 64.7738 127.881 64.7738C127.881 64.7738 127.416 62.3022 125.128 62.2664C123.053 62.2306 122.159 63.4843 122.159 63.4843C122.159 63.4843 121.337 62.338 119.62 62.8395C117.867 63.341 117.259 64.8813 117.259 64.8813C117.259 64.8813 116.043 63.95 114.398 65.1679C112.717 66.3858 112.86 69.6455 113.933 74.6604C115.006 79.6753 117.152 79.7827 117.152 79.7827C117.152 79.7827 117.009 82.326 120.013 86.1946C123.017 90.0633 125.771 90.2782 125.771 90.2782L134.855 112.989L149.412 107.723Z" fill="white"/>
<path d="M134.82 113.347C134.856 113.347 134.891 113.347 134.927 113.311L149.519 108.009C149.626 107.974 149.698 107.902 149.734 107.795C149.769 107.687 149.769 107.58 149.698 107.508L137.788 87.4125C137.609 86.3737 135.034 72.4753 134.176 65.8126C133.282 59.1858 132.638 53.0605 132.316 50.0873L132.281 49.6575C132.102 48.1172 131.1 46.8993 129.956 46.8277C129.419 46.7918 128.096 47.0068 127.452 49.6217C126.701 52.7381 127.13 59.6515 127.381 62.947C126.88 62.3738 126.165 61.9082 125.128 61.8724C123.554 61.8365 122.588 62.5171 122.123 62.947C121.694 62.5888 120.836 62.0515 119.477 62.4813C118.118 62.8753 117.367 63.8783 117.045 64.3798C116.508 64.1291 115.435 63.8783 114.112 64.8455C112.467 66.0276 112.288 69.0007 113.504 74.6962C114.398 78.8155 116.043 79.7827 116.723 79.9976C116.759 80.7857 117.152 83.1499 119.62 86.3737C122.231 89.7409 124.663 90.4215 125.414 90.5289L134.426 113.06C134.534 113.275 134.677 113.347 134.82 113.347ZM148.911 107.544L135.034 112.559L126.058 90.1707C126.022 90.0633 125.879 89.9558 125.771 89.9558C125.736 89.9558 123.125 89.705 120.264 86.0155C117.403 82.326 117.474 79.8543 117.474 79.8185C117.474 79.7111 117.438 79.6394 117.403 79.5678C117.331 79.4961 117.259 79.4603 117.152 79.4603C117.152 79.4603 115.221 79.2454 114.255 74.6245C113.111 69.2872 113.218 66.4574 114.577 65.4544C116.008 64.4156 117.009 65.132 117.045 65.1679C117.116 65.2395 117.259 65.2395 117.331 65.2395C117.438 65.2037 117.51 65.132 117.546 65.0246C117.546 65.0246 118.154 63.6276 119.691 63.1619C121.194 62.732 121.837 63.6634 121.873 63.6634C121.945 63.7709 122.052 63.8067 122.159 63.8067C122.266 63.8067 122.374 63.7709 122.445 63.6634C122.481 63.6276 123.304 62.5529 125.128 62.5888C127.13 62.6246 127.56 64.738 127.56 64.8455C127.595 65.0246 127.774 65.1679 127.953 65.132C128.132 65.0962 128.275 64.9529 128.239 64.7738C128.239 64.6664 127.166 53.7769 128.132 49.8366C128.49 48.3679 129.169 47.5082 129.92 47.5441C130.635 47.5799 131.458 48.4396 131.601 49.7649L131.637 50.1948C131.959 53.1679 132.602 59.3291 133.497 65.9201C134.426 72.7977 137.109 87.4483 137.145 87.6274C137.145 87.6633 137.18 87.6991 137.18 87.7349L148.911 107.544Z" fill="#231A47"/>
<path d="M123.232 76.4872C123.447 76.4514 123.59 76.3081 123.59 76.0932L122.624 65.8484C122.624 65.6693 122.445 65.5261 122.267 65.5261C122.088 65.5261 121.945 65.7052 121.945 65.8843L122.91 76.129C122.91 76.3439 123.053 76.4872 123.232 76.4872Z" fill="#231A47"/>
<path d="M118.833 76.8454H118.869C119.048 76.8096 119.191 76.6663 119.155 76.4514L117.975 66.8514C117.939 66.6723 117.796 66.529 117.581 66.5649C117.402 66.6007 117.259 66.744 117.295 66.9589L118.475 76.5588C118.511 76.7021 118.654 76.8454 118.833 76.8454Z" fill="#231A47"/>
<path d="M130.528 67.3529C130.528 67.3529 128.096 65.8484 124.162 66.7439C120.228 67.6395 118.511 68.5708 117.152 69.932C116.258 70.8275 117.116 72.2245 118.905 71.8663C122.016 71.2574 125.95 72.2245 125.95 72.2245C125.95 72.2245 124.913 77.2752 126.701 79.9976C128.489 82.72 130.206 82.4692 130.206 82.4692" fill="white"/>
<path d="M130.099 82.7916C130.206 82.7916 130.242 82.7916 130.278 82.7916C130.457 82.7558 130.6 82.5767 130.564 82.3976C130.528 82.2185 130.349 82.0752 130.17 82.111C130.17 82.111 128.633 82.2543 126.987 79.7827C125.271 77.2036 126.272 72.332 126.272 72.2603C126.308 72.0812 126.201 71.9021 126.022 71.8663C125.843 71.8305 121.98 70.8633 118.833 71.4723C117.903 71.6514 117.367 71.329 117.188 71.0066C117.045 70.7201 117.116 70.3977 117.367 70.1469C118.547 68.929 120.121 67.9977 124.198 67.0663C127.953 66.2066 130.278 67.6395 130.313 67.6395C130.492 67.7469 130.671 67.6753 130.778 67.532C130.886 67.3529 130.814 67.1738 130.671 67.0663C130.564 66.9947 128.096 65.4902 124.055 66.4216C120.335 67.2813 118.404 68.141 116.866 69.6813C116.401 70.1827 116.294 70.7917 116.58 71.3648C116.973 72.0812 117.903 72.4036 118.94 72.1887C121.444 71.6872 124.555 72.2603 125.521 72.4753C125.306 73.6573 124.806 77.7409 126.415 80.1767C128.025 82.5767 129.598 82.7916 130.099 82.7916Z" fill="#231A47"/>
<path d="M206.563 60.0813C208.816 60.0813 210.855 59.2216 210.962 59.15C211.141 59.0783 211.213 58.8634 211.141 58.6843C211.07 58.5052 210.855 58.4335 210.676 58.5052C210.64 58.541 206.349 60.332 203.595 58.6127C202.128 57.7171 201.342 55.9619 201.234 53.4186C200.769 44.2127 209.818 35.2217 209.925 35.1143C210.068 34.971 210.068 34.7561 209.925 34.6128C209.782 34.4695 209.567 34.4695 209.424 34.6128C209.031 34.971 200.09 43.9262 200.555 53.4545C200.698 56.2127 201.592 58.147 203.237 59.1858C204.274 59.8664 205.454 60.0813 206.563 60.0813Z" fill="#231A47"/>
<path d="M265.432 51.556C266.147 51.556 266.862 51.4843 267.577 51.3052C269.759 50.7679 271.512 49.3709 272.799 47.15C277.413 39.2695 273.944 25.6576 273.801 25.0845C273.765 24.9053 273.55 24.7979 273.371 24.8337C273.193 24.8695 273.085 25.0845 273.121 25.2636C273.157 25.4068 276.697 39.1978 272.191 46.7918C270.975 48.8336 269.366 50.1231 267.399 50.6246C263.429 51.6276 259.28 49.1201 259.209 49.0843C259.03 48.9769 258.851 49.0485 258.744 49.1918C258.636 49.3709 258.708 49.55 258.851 49.6575C259.03 49.7649 261.998 51.556 265.432 51.556Z" fill="#231A47"/>
<path d="M249.23 19.9621C249.266 19.9621 249.302 19.9621 249.338 19.9621C249.516 19.9263 249.624 19.7114 249.588 19.5323C249.552 19.3531 248.408 14.6965 254.917 11.6517C261.426 8.60693 264.788 14.4815 264.931 14.7323C265.038 14.9114 265.217 14.9472 265.396 14.8756C265.575 14.7681 265.61 14.589 265.539 14.4099C265.503 14.3382 261.748 7.74724 254.631 11.0427C247.549 14.3383 248.908 19.6755 248.908 19.7472C248.944 19.8546 249.052 19.9621 249.23 19.9621Z" fill="#231A47"/>
<path d="M265.288 12.9412C260.317 11.4368 254.809 13.9084 250.875 18.8158C249.695 18.2785 248.443 18.0636 247.192 18.2427C242.507 18.8875 239.431 24.6188 240.289 31.0307C240.933 35.6874 243.472 39.4127 246.584 40.8814C247.978 44.9291 250.661 48.0097 254.345 49.1202C261.64 51.341 269.974 45.0366 272.978 35.0426C276.018 25.0128 272.549 15.1621 265.288 12.9412Z" fill="#FF9A6C"/>
<path d="M257.313 49.8724C263.894 49.8724 270.653 43.8903 273.3 35.1143C276.375 24.977 272.799 14.8756 265.36 12.6189C260.46 11.1502 254.917 13.3711 250.768 18.4218C249.552 17.9203 248.336 17.7412 247.12 17.9203C244.76 18.2427 242.685 19.8188 241.326 22.3263C240.003 24.7979 239.502 27.9143 239.931 31.1023C240.539 35.6158 243.043 39.556 246.298 41.1321C247.8 45.3948 250.625 48.3321 254.237 49.4426C255.274 49.7291 256.276 49.8724 257.313 49.8724ZM265.181 13.2636C272.263 15.4129 275.624 25.1203 272.656 34.8993C269.688 44.6784 261.533 50.9112 254.452 48.762C251.018 47.7232 248.336 44.8575 246.941 40.7381C246.906 40.6665 246.834 40.5948 246.762 40.5232C243.651 39.0545 241.255 35.2934 240.647 30.9591C240.218 27.9143 240.718 24.977 241.97 22.6128C243.222 20.2845 245.082 18.8517 247.227 18.5651C248.372 18.4218 249.552 18.6009 250.732 19.1382C250.875 19.2099 251.054 19.174 251.162 19.0308C255.131 14.0517 260.496 11.8666 265.181 13.2636Z" fill="#231A47"/>
<path d="M213.716 58.0754C213.716 58.0754 205.347 60.8335 203.488 51.8067C201.628 42.8157 211.177 30.78 219.26 27.4845C227.343 24.189 228.022 29.4904 228.022 29.4904C228.022 29.4904 235.604 19.4964 248.122 28.0576C257.778 34.6486 259.101 45.3948 259.924 59.1858C260.711 72.4036 249.552 83.9737 238.501 78.7439C225.125 72.3678 213.716 58.0754 213.716 58.0754Z" fill="#FF9A6C"/>
<path d="M244.08 80.3558C246.691 80.3558 249.302 79.5319 251.698 77.92C257.349 74.0872 260.747 66.7081 260.282 59.15C259.459 45.4306 258.064 34.4337 248.336 27.771C237.357 20.2845 230.025 26.8397 228.201 28.774C227.986 28.165 227.486 27.2695 226.448 26.6606C224.768 25.6934 222.3 25.8367 219.117 27.1262C210.533 30.6367 201.306 42.959 203.13 51.8425C203.702 54.6724 204.99 56.6425 206.885 57.753C209.568 59.3291 212.679 58.6485 213.537 58.3977C214.932 60.0813 225.805 73.0484 238.322 78.9588C240.254 79.926 242.185 80.3558 244.08 80.3558ZM238.251 24.9412C241.005 24.9412 244.259 25.8367 247.979 28.3442C257.492 34.8277 258.815 45.2157 259.638 59.1858C260.067 66.4932 256.812 73.6215 251.341 77.3469C247.371 80.0334 242.9 80.3916 238.68 78.4215C225.483 72.1887 214.11 58.0037 213.967 57.8604C213.859 57.753 213.716 57.7171 213.573 57.753C213.537 57.753 210.068 58.8634 207.243 57.2156C205.49 56.2127 204.346 54.35 203.81 51.7351C202.021 43.1381 211.034 31.2098 219.367 27.8068C222.3 26.6248 224.624 26.4457 226.091 27.2695C227.45 28.0576 227.664 29.4904 227.664 29.5262C227.7 29.6695 227.772 29.777 227.915 29.8128C228.058 29.8486 228.201 29.8128 228.272 29.7053C228.523 29.4546 232.063 24.9412 238.251 24.9412Z" fill="#231A47"/>
<path d="M248.515 60.4753C248.515 60.4753 255.453 56.0336 256.204 63.5201C256.955 71.0066 251.376 75.1618 246.87 75.6991C242.542 76.2006 241.219 73.8006 241.29 71.9021C241.362 70.0036 242.506 69.8245 242.506 69.8245L248.515 60.4753Z" fill="#E8ECF7"/>
<path d="M245.761 76.129C246.119 76.129 246.512 76.0932 246.906 76.0573C251.376 75.52 257.313 71.2932 256.562 63.5201C256.347 61.2992 255.561 59.8306 254.237 59.2216C251.805 58.0395 248.479 60.1529 248.336 60.2246C248.3 60.2604 248.265 60.2962 248.229 60.332L242.292 69.5738C241.898 69.7171 241.004 70.1827 240.933 71.938C240.897 73.12 241.326 74.2305 242.149 74.9827C242.757 75.4842 243.866 76.129 245.761 76.129ZM252.556 59.5082C253.021 59.5082 253.522 59.5798 253.951 59.7947C255.024 60.332 255.668 61.5858 255.882 63.5559C256.633 71.2932 250.732 74.9111 246.834 75.3409C244.974 75.5558 243.508 75.2335 242.614 74.4096C241.934 73.8006 241.577 72.8693 241.648 71.9021C241.72 70.326 242.542 70.1469 242.578 70.1469C242.685 70.1469 242.757 70.0753 242.793 70.0036L248.765 60.7261C249.123 60.5111 250.875 59.5082 252.556 59.5082Z" fill="#231A47"/>
<path d="M227.414 41.5978C227.414 41.5978 227.342 36.4754 220.619 41.1321C213.895 45.753 206.206 61.5857 211.964 71.4723C215.862 78.2066 220.726 77.526 220.726 77.526C220.726 77.526 222.049 83.2931 220.44 87.8423C218.509 93.2154 213.788 93.3229 213.788 93.3229C213.788 93.3229 196.585 112.021 214.896 114.851C237.285 118.326 240.075 100.702 242.364 92.499C235.318 89.5259 240.11 74.3379 240.11 74.3379C240.11 74.3379 244.974 75.6633 248.837 71.0424C251.591 67.7469 253.88 60.6186 250.446 58.2544C247.549 56.2485 245.511 57.7887 245.511 57.7887C245.511 57.7887 243.007 58.935 237.356 55.4246C228.988 50.1948 227.414 41.5978 227.414 41.5978Z" fill="white"/>
<path d="M220.368 115.603C236.57 115.603 240.003 102.6 242.149 94.5408C242.328 93.8244 242.507 93.1796 242.685 92.5707C242.721 92.3916 242.65 92.2125 242.471 92.1766C236.319 89.5975 239.717 76.8454 240.325 74.732C241.505 74.9469 245.69 75.3051 249.051 71.2573C251.054 68.8574 252.842 64.4514 252.413 61.1917C252.199 59.7589 251.591 58.6485 250.589 57.9679C247.728 55.9977 245.618 57.2514 245.296 57.4664C245.046 57.538 242.578 58.2544 237.464 55.1022C229.56 50.2306 227.807 42.0993 227.736 41.5978C227.736 41.3471 227.593 39.8068 226.341 39.162C225.053 38.4814 223.051 39.0545 220.404 40.8814C216.863 43.3172 213.287 48.5828 211.284 54.2425C208.888 60.9768 209.031 67.138 211.642 71.6872C215.075 77.6334 219.224 77.9558 220.44 77.92C220.69 79.1379 221.477 83.9021 220.082 87.7349C218.258 92.7856 213.931 93.0005 213.752 93.0005C213.645 93.0005 213.573 93.0363 213.502 93.108C213.108 93.5378 204.131 103.389 206.456 109.98C207.422 112.738 210.211 114.493 214.789 115.209C216.828 115.46 218.687 115.603 220.368 115.603ZM241.934 92.6423C241.791 93.1796 241.648 93.7528 241.469 94.3617C239.18 103.066 235.318 117.645 214.896 114.493C210.605 113.812 207.958 112.236 207.1 109.729C205.061 103.854 212.965 94.7199 213.931 93.6453C214.789 93.5737 218.938 92.8931 220.726 87.9498C222.371 83.3647 221.084 77.6693 221.048 77.4543C221.012 77.2752 220.833 77.1678 220.654 77.2036C220.476 77.2394 215.969 77.7409 212.25 71.329C206.527 61.4425 214.503 45.8246 220.833 41.4545C223.837 39.3769 225.34 39.3769 226.091 39.7709C227.056 40.2724 227.092 41.6336 227.092 41.6694C227.092 41.7053 227.092 41.7053 227.092 41.7411C227.092 41.8127 228.773 50.553 237.142 55.7112C242.9 59.2574 245.511 58.147 245.618 58.1111C245.654 58.1111 245.654 58.0753 245.69 58.0753C245.761 58.0037 247.585 56.7141 250.232 58.541C251.054 59.1141 251.591 60.0455 251.734 61.2992C252.163 64.3798 250.446 68.5708 248.551 70.8275C244.867 75.2334 240.396 74.0872 240.182 74.0155C240.003 73.9797 239.824 74.0514 239.753 74.2305C239.574 74.8036 235.068 89.3468 241.934 92.6423Z" fill="#231A47"/>
<path d="M244.939 64.0574C245.082 64.0574 245.225 63.95 245.261 63.7708C245.261 63.735 245.725 61.6932 247.228 60.8694C247.585 60.6903 247.943 60.6186 248.265 60.7261C249.016 60.941 249.481 61.8365 249.481 61.8365C249.552 62.0156 249.767 62.0873 249.946 61.9798C250.125 61.9082 250.196 61.6933 250.089 61.5141C250.053 61.4783 249.481 60.4037 248.479 60.0813C247.979 59.9022 247.442 59.9739 246.906 60.2604C245.082 61.2276 244.617 63.5201 244.581 63.6276C244.545 63.8067 244.653 63.9858 244.831 64.0216C244.867 64.0574 244.903 64.0574 244.939 64.0574Z" fill="#231A47"/>
<path d="M222.657 63.6992C222.765 63.6992 222.836 63.6992 222.872 63.6992C223.051 63.6992 223.194 63.5201 223.194 63.341C223.194 63.1619 223.015 63.0186 222.836 63.0186C222.836 63.0186 221.692 63.0902 220.19 62.3738C219.474 62.0156 219.081 61.5858 219.045 61.0843C218.938 60.2246 219.796 59.0067 221.441 57.7171C223.194 56.3201 225.411 55.3888 225.411 55.3888C225.483 55.353 225.554 55.2813 225.59 55.2097C225.626 55.138 228.38 49.2993 224.553 46.8276C221.692 45.0008 218.723 46.4336 218.616 46.5052C218.437 46.5769 218.366 46.7918 218.473 46.9709C218.544 47.15 218.759 47.2217 218.938 47.1142C218.974 47.1142 221.656 45.7888 224.195 47.4008C227.235 49.3351 225.375 53.9918 225.054 54.7798C224.553 54.9948 222.657 55.8544 221.048 57.144C219.188 58.6485 218.294 59.9738 218.401 61.1201C218.473 61.8723 219.009 62.5171 219.939 62.947C221.155 63.6276 222.228 63.6992 222.657 63.6992Z" fill="#231A47"/>
<path d="M233.78 48.6903C233.78 48.6903 235.962 47.3292 238.608 49.4784C240.826 51.3052 240.826 53.3112 240.826 53.3112" fill="white"/>
<path d="M240.79 53.6694C240.969 53.6694 241.147 53.5261 241.147 53.3112C241.147 53.2396 241.147 51.1261 238.823 49.2276C236.033 46.9351 233.708 48.3321 233.601 48.4038C233.422 48.5112 233.387 48.7261 233.494 48.8694C233.601 49.0127 233.816 49.0844 233.959 48.9769C234.03 48.9411 235.962 47.7948 238.358 49.7649C240.396 51.4485 240.432 53.2396 240.432 53.3112C240.432 53.4903 240.575 53.6694 240.79 53.6694Z" fill="#231A47"/>
<path d="M223.194 53.2395C222.657 54.2784 221.728 54.8515 221.084 54.5291C220.44 54.2067 220.368 53.0963 220.905 52.0575C221.441 51.0187 222.371 50.4455 223.015 50.7679C223.659 51.0903 223.73 52.2007 223.194 53.2395Z" fill="#231A47"/>
<path d="M230.383 56.75C229.846 57.7888 228.88 58.3619 228.272 58.0395C227.629 57.7171 227.557 56.6067 228.094 55.5679C228.63 54.5291 229.596 53.956 230.204 54.2784C230.812 54.6007 230.919 55.7112 230.383 56.75Z" fill="#231A47"/>
<path d="M226.377 67.4962C226.77 67.4962 227.199 67.4604 227.664 67.3529C231.098 66.529 231.277 63.9857 231.277 63.8783C231.277 63.6992 231.134 63.5201 230.955 63.5201C230.776 63.5201 230.597 63.6634 230.597 63.8425C230.597 63.9499 230.418 65.9917 227.486 66.7081C224.66 67.3887 222.979 65.2395 222.979 65.2037C222.872 65.0604 222.657 65.0246 222.514 65.132C222.371 65.2395 222.335 65.4544 222.443 65.5977C222.514 65.6693 223.909 67.4962 226.377 67.4962Z" fill="#231A47"/>
<path d="M232.922 61.944C233.136 61.944 233.351 61.944 233.565 61.9082C234.781 61.7291 235.568 60.941 235.962 59.5798C235.997 59.4007 235.926 59.2216 235.711 59.15C235.533 59.1142 235.354 59.1858 235.282 59.4007C234.96 60.5112 234.388 61.1201 233.422 61.2634C232.528 61.4067 231.42 61.1559 229.989 60.7619C226.913 59.8664 225.483 59.0425 226.126 56.7858C226.162 56.6067 226.091 56.4276 225.876 56.356C225.697 56.3201 225.518 56.3918 225.447 56.6067C224.589 59.6515 227.092 60.6545 229.774 61.4425C231.062 61.6933 232.063 61.944 232.922 61.944Z" fill="#231A47"/>
<path d="M216.506 56.6425C216.792 56.6425 217.078 56.6067 217.364 56.5709C218.616 56.356 219.474 55.5321 219.868 54.1709C219.903 53.9918 219.832 53.8127 219.617 53.741C219.439 53.7052 219.26 53.7769 219.188 53.9918C218.866 55.1381 218.258 55.747 217.221 55.9261C216.363 56.0694 215.29 55.9619 213.716 55.4963C210.962 54.7082 209.389 53.741 210.068 51.3769C210.104 51.1978 210.032 51.0187 209.818 50.947C209.639 50.9112 209.46 50.9828 209.389 51.1978C208.495 54.2783 210.855 55.3888 213.502 56.1768C214.753 56.4992 215.719 56.6425 216.506 56.6425Z" fill="#231A47"/>
<path d="M225.554 58.2545C225.697 58.2545 225.84 58.1828 225.876 58.0395C225.948 57.8604 225.84 57.6455 225.661 57.6097L218.973 55.2097C218.795 55.1381 218.58 55.2455 218.544 55.4246C218.509 55.6037 218.58 55.8186 218.759 55.8545L225.447 58.2545C225.447 58.2545 225.518 58.2545 225.554 58.2545Z" fill="#231A47"/>
<path d="M179.632 165.788L179.883 200.678H191.041C190.898 187.818 190.219 162.314 190.219 162.314C190.219 162.314 187.143 149.884 190.791 133.729C193.366 122.409 200.733 109.335 205.562 103.675C212.679 95.3289 218.115 91.3528 218.115 91.3528C218.115 91.3528 205.025 91.6036 192.722 98.2304C174.876 107.83 164.897 118.791 164.897 118.791L144.655 91.3886L121.658 102.636C121.658 102.636 128.561 141.824 143.832 159.09C157.101 174.134 179.632 165.788 179.632 165.788Z" fill="#288915"/>
<path d="M179.883 201H191.041C191.149 201 191.22 200.964 191.292 200.893C191.363 200.821 191.399 200.749 191.399 200.642C191.256 187.925 190.576 162.529 190.576 162.278C190.576 162.242 190.576 162.242 190.576 162.206C190.541 162.099 187.572 149.669 191.149 133.8C193.795 122.051 201.485 109.012 205.848 103.89C212.5 96.0811 217.722 92.0692 218.294 91.6394C218.401 91.5677 218.473 91.3886 218.437 91.2453C218.401 91.1021 218.258 90.9946 218.115 90.9946C217.972 90.9946 204.811 91.317 192.579 97.908C176.521 106.541 166.722 116.391 164.969 118.254L144.977 91.1737C144.869 91.0304 144.691 90.9946 144.548 91.0662L121.551 102.314C121.408 102.386 121.336 102.529 121.372 102.672C121.444 103.066 128.454 142.147 143.618 159.305C150.556 167.149 160.034 168.582 166.757 168.367C172.837 168.188 177.809 166.684 179.311 166.218L179.561 200.642C179.525 200.857 179.704 201 179.883 201ZM190.684 200.319H180.205L179.954 165.788C179.954 165.681 179.883 165.573 179.811 165.502C179.704 165.43 179.597 165.43 179.489 165.466C179.418 165.502 173.803 167.543 166.65 167.758C160.069 167.937 150.842 166.576 144.083 158.911C129.705 142.648 122.66 106.29 122.052 102.851L144.548 91.8543L164.611 119.042C164.683 119.114 164.755 119.186 164.862 119.186C164.969 119.186 165.076 119.15 165.148 119.078C165.255 118.971 175.269 108.045 192.865 98.5886C202.915 93.1797 213.645 92.0334 217.006 91.8185C215.147 93.3229 210.676 97.1916 205.276 103.496C200.018 109.657 192.865 122.947 190.433 133.693C186.893 149.275 189.682 161.597 189.861 162.385C189.897 163.46 190.541 187.711 190.684 200.319Z" fill="#231A47"/>
<path d="M230.919 121.299C234.531 99.2333 242.328 92.4632 242.328 92.4632C242.328 92.4632 262.463 93.717 275.875 117.574C301.911 163.818 294.687 200.678 274.051 200.678H229.595C229.631 200.678 224.553 160.451 230.919 121.299Z" fill="#288915"/>
<path d="M229.631 201H274.087C280.131 201 285.138 197.955 288.5 192.152C292.648 185.06 293.972 174.349 292.291 161.955C290.395 148.129 284.852 132.726 276.232 117.43C269.258 105.036 260.425 98.8035 254.273 95.7945C247.585 92.499 242.614 92.1767 242.399 92.1408C242.292 92.1408 242.22 92.1767 242.149 92.2125C241.827 92.499 234.173 99.3408 230.597 121.263C224.267 160.021 229.238 200.319 229.274 200.713C229.309 200.893 229.452 201 229.631 201ZM242.471 92.8214C243.329 92.8931 248.014 93.4662 253.987 96.4035C260.067 99.3766 268.722 105.502 275.624 117.753C284.208 132.976 289.716 148.308 291.611 162.027C293.292 174.278 291.969 184.845 287.927 191.794C284.673 197.346 279.88 200.319 274.087 200.319H229.917C229.488 196.558 225.232 158.23 231.241 121.371C234.567 101.096 241.541 93.7169 242.471 92.8214Z" fill="#231A47"/>
<path d="M229.882 183.878L216.005 186.206C216.005 186.206 206.134 178.97 200.126 177.645C194.117 176.32 180.67 184.021 178.488 187.03C176.307 190.075 181.063 190.146 181.063 190.146C181.063 190.146 177.093 193.513 179.454 194.982C181.814 196.415 185.963 194.337 185.963 194.337C185.963 194.337 182.565 196.63 185.641 197.669C188.717 198.672 191.793 197.167 191.793 197.167C191.793 197.167 189.003 199.496 192.365 200.427C195.727 201.322 201.807 196.128 201.807 196.128C201.807 196.128 207.135 200.821 216.255 200.749C223.551 200.713 231.67 200.749 231.67 200.749L229.882 183.878Z" fill="white"/>
<path d="M216.112 201C216.184 201 216.22 201 216.291 201C223.516 200.964 231.634 201 231.706 201C231.813 201 231.884 200.964 231.956 200.893C232.027 200.821 232.063 200.713 232.027 200.642L230.203 183.842C230.203 183.734 230.132 183.663 230.06 183.591C229.989 183.519 229.882 183.519 229.81 183.519L216.077 185.812C214.896 184.952 205.919 178.54 200.197 177.287C193.903 175.925 180.455 183.734 178.202 186.815C177.558 187.71 177.415 188.463 177.737 189.108C178.166 190.003 179.454 190.325 180.276 190.433C179.525 191.185 178.273 192.654 178.381 193.872C178.417 194.445 178.738 194.91 179.311 195.269C180.849 196.2 182.994 195.77 184.461 195.304C184.175 195.699 183.996 196.128 184.067 196.594C184.139 197.203 184.675 197.669 185.569 197.955C187.536 198.6 189.504 198.278 190.72 197.884C190.505 198.278 190.326 198.743 190.433 199.209C190.576 199.89 191.22 200.391 192.329 200.678C195.512 201.537 200.698 197.418 201.842 196.487C202.951 197.382 208.03 201 216.112 201ZM223.444 200.319C221.155 200.319 218.687 200.319 216.255 200.355C207.386 200.427 202.093 195.878 202.057 195.806C201.914 195.698 201.735 195.698 201.592 195.806C201.52 195.842 195.619 200.893 192.472 200.033C191.9 199.89 191.184 199.603 191.077 199.101C190.934 198.457 191.721 197.669 192.007 197.382C192.15 197.275 192.186 197.06 192.079 196.916C191.971 196.773 191.792 196.701 191.649 196.809C191.614 196.809 188.645 198.242 185.748 197.31C185.283 197.167 184.747 196.916 184.711 196.487C184.604 195.806 185.748 194.875 186.142 194.588C186.285 194.481 186.32 194.302 186.249 194.122C186.142 193.979 185.963 193.907 185.784 193.979C185.748 194.015 181.814 195.985 179.633 194.66C179.275 194.445 179.06 194.158 179.06 193.8C178.953 192.654 180.634 190.934 181.313 190.397C181.421 190.29 181.457 190.146 181.421 190.003C181.385 189.86 181.242 189.788 181.099 189.788C180.455 189.788 178.738 189.573 178.345 188.785C178.166 188.391 178.309 187.89 178.774 187.209C180.884 184.308 194.117 176.678 200.054 177.967C205.919 179.221 215.683 186.385 215.79 186.457C215.862 186.528 215.969 186.528 216.041 186.528L229.56 184.272L231.312 200.319C230.275 200.319 227.164 200.319 223.444 200.319Z" fill="#231A47"/>
<path d="M182.708 189.466C182.78 189.466 182.816 189.466 182.887 189.43L194.189 183.054C194.367 182.946 194.403 182.767 194.332 182.588C194.224 182.409 194.046 182.373 193.867 182.445L182.529 188.821C182.351 188.928 182.315 189.108 182.386 189.287C182.458 189.43 182.565 189.466 182.708 189.466Z" fill="#231A47"/>
<path d="M187.107 193.442C187.179 193.442 187.215 193.442 187.286 193.406L197.264 187.531C197.443 187.424 197.479 187.209 197.372 187.066C197.264 186.887 197.05 186.851 196.907 186.958L186.929 192.833C186.75 192.94 186.714 193.155 186.821 193.299C186.857 193.37 186.964 193.442 187.107 193.442Z" fill="#231A47"/>
<path d="M192.722 196.343C192.794 196.343 192.865 196.307 192.901 196.272L200.376 191.293C200.519 191.185 200.591 190.97 200.483 190.827C200.376 190.684 200.161 190.612 200.018 190.719L192.544 195.734C192.4 195.842 192.329 196.057 192.436 196.2C192.508 196.307 192.615 196.343 192.722 196.343Z" fill="#231A47"/>
<path d="M257.992 162.923L222.514 171.842L226.734 200.678H250.124" fill="#288915"/>
<path d="M250.124 201C250.303 201 250.482 200.857 250.482 200.642C250.482 200.427 250.339 200.284 250.124 200.284H227.02L222.872 172.057L258.028 163.245C258.207 163.209 258.314 162.994 258.279 162.815C258.243 162.636 258.028 162.529 257.849 162.564L222.371 171.448C222.192 171.484 222.085 171.663 222.121 171.842L226.341 200.678C226.377 200.857 226.52 200.964 226.699 200.964L250.124 201Z" fill="#231A47"/>
<path d="M179.132 161.526C179.168 161.526 179.203 161.526 179.239 161.49C179.418 161.418 179.525 161.239 179.454 161.06C179.418 160.952 175.984 151.388 177.844 136.845C179.704 122.194 185.104 115.818 185.176 115.747C185.283 115.603 185.283 115.388 185.14 115.245C184.997 115.138 184.783 115.138 184.639 115.281C184.425 115.532 179.024 121.872 177.129 136.738C175.269 151.46 178.738 161.167 178.774 161.275C178.846 161.454 178.989 161.526 179.132 161.526Z" fill="#231A47"/>
<path d="M244.867 63.8425C244.867 65.0246 245.797 65.9559 246.977 65.9559C248.157 65.9559 249.087 65.0246 249.087 63.8425C249.087 62.6604 248.157 61.7291 246.977 61.7291C245.833 61.7291 244.867 62.6604 244.867 63.8425Z" fill="white"/>
<path d="M246.977 66.2783C248.336 66.2783 249.445 65.1679 249.445 63.8067C249.445 62.4455 248.336 61.3351 246.977 61.3351C245.618 61.3351 244.509 62.4455 244.509 63.8067C244.545 65.2037 245.618 66.2783 246.977 66.2783ZM246.977 62.0515C247.943 62.0515 248.73 62.8395 248.73 63.8067C248.73 64.7738 247.943 65.5619 246.977 65.5619C246.011 65.5619 245.225 64.7738 245.225 63.8067C245.225 62.8395 246.011 62.0515 246.977 62.0515Z" fill="#231A47"/>
<path d="M245.189 62.9828C245.225 62.9828 245.26 62.9828 245.296 62.9828C245.475 62.9111 245.582 62.7321 245.511 62.5529C245.511 62.5171 244.295 58.3619 246.441 56.1052C247.478 55.0306 248.765 54.4933 250.088 54.6007C251.304 54.6724 252.413 55.2813 253.093 56.2485C254.38 58.0395 253.772 59.3291 253.772 59.3291C253.701 59.5082 253.772 59.7231 253.915 59.7947C254.094 59.8664 254.309 59.7948 254.38 59.6515C254.416 59.5798 255.167 57.9679 253.665 55.8545C252.842 54.7082 251.591 53.9918 250.16 53.9202C248.622 53.8127 247.12 54.4216 245.976 55.6395C243.544 58.1828 244.795 62.5888 244.867 62.7679C244.903 62.8753 245.01 62.9828 245.189 62.9828Z" fill="#231A47"/>
<path d="M193.33 200.678H118.475C117.009 200.678 115.829 199.496 115.829 198.027C115.829 196.558 117.009 195.376 118.475 195.376H193.33C194.797 195.376 195.977 196.558 195.977 198.027C195.977 199.496 194.797 200.678 193.33 200.678Z" fill="#F0F2F5"/>
<path d="M118.511 201H193.33C194.976 201 196.299 199.675 196.299 198.027C196.299 196.379 194.976 195.054 193.33 195.054H118.475C116.83 195.054 115.507 196.379 115.507 198.027C115.507 199.675 116.866 201 118.511 201ZM193.33 195.734C194.582 195.734 195.619 196.773 195.619 198.027C195.619 199.281 194.582 200.319 193.33 200.319H118.475C117.224 200.319 116.186 199.281 116.186 198.027C116.186 196.773 117.224 195.734 118.475 195.734H193.33Z" fill="#231A47"/>
<path d="M63.2192 183.663H158.031C160.177 183.663 161.822 181.728 161.428 179.615L150.771 117.502C150.306 114.744 147.909 112.738 145.12 112.738H50.3082C48.1624 112.738 46.5172 114.672 46.9106 116.785L57.5684 178.899C58.0333 181.621 60.4296 183.663 63.2192 183.663Z" fill="#E8ECF7"/>
<path d="M63.2193 183.985H158.031C159.14 183.985 160.212 183.484 160.928 182.624C161.643 181.764 161.965 180.618 161.75 179.508L151.093 117.394C150.592 114.457 148.053 112.344 145.084 112.344H50.2725C49.1638 112.344 48.0909 112.845 47.3756 113.705C46.6603 114.565 46.3384 115.711 46.553 116.821L57.2108 178.934C57.7473 181.872 60.2508 183.985 63.2193 183.985ZM145.12 113.06C147.766 113.06 149.984 114.959 150.449 117.538L161.107 179.651C161.25 180.546 160.999 181.478 160.427 182.194C159.819 182.911 158.961 183.305 158.031 183.305H63.2193C60.5727 183.305 58.3553 181.406 57.8903 178.827L47.2325 116.714C47.0895 115.818 47.3398 114.887 47.9121 114.171C48.5201 113.454 49.3784 113.06 50.3083 113.06H145.12Z" fill="#231A47"/>
<path d="M59.2135 183.663H153.989C156.135 183.663 157.78 181.728 157.387 179.615L146.765 117.502C146.3 114.744 143.904 112.738 141.114 112.738H46.3025C44.1566 112.738 42.5115 114.672 42.9049 116.785L53.5627 178.899C53.9918 181.621 56.3881 183.663 59.2135 183.663Z" fill="#231F20"/>
<path d="M59.2135 183.985H153.989C155.098 183.985 156.171 183.484 156.886 182.624C157.602 181.764 157.923 180.618 157.709 179.508L147.087 117.43C146.586 114.493 144.047 112.38 141.078 112.38H46.2668C45.1581 112.38 44.0851 112.881 43.3699 113.741C42.6546 114.6 42.3327 115.747 42.5473 116.857L53.2051 178.97C53.7058 181.872 56.2093 183.985 59.2135 183.985ZM141.078 113.06C143.725 113.06 145.942 114.959 146.407 117.538L157.065 179.651C157.208 180.546 156.958 181.478 156.386 182.194C155.778 182.911 154.919 183.305 153.989 183.305H59.1777C56.5312 183.305 54.3138 181.406 53.8488 178.827L43.191 116.714C43.048 115.818 43.2983 114.887 43.8706 114.171C44.4786 113.454 45.3369 113.06 46.2668 113.06H141.078Z" fill="#231A47"/>
<path d="M74.9857 196.773H105.385L118.94 159.126H88.5762L74.9857 196.773Z" fill="#E8ECF7"/>
<path d="M74.9858 197.096H105.386C105.529 197.096 105.672 196.988 105.707 196.881L119.262 159.269C119.298 159.161 119.298 159.054 119.226 158.946C119.155 158.839 119.048 158.803 118.94 158.803H88.5763C88.4332 158.803 88.2901 158.911 88.2544 159.018L74.6639 196.63C74.6281 196.737 74.6281 196.845 74.6996 196.952C74.7711 197.06 74.8785 197.096 74.9858 197.096ZM105.135 196.415H75.4507L88.7908 159.484H118.404L105.135 196.415Z" fill="#231A47"/>
<path d="M74.9856 196.773H102.524L116.115 159.126H88.5761L74.9856 196.773Z" fill="#231F20"/>
<path d="M74.9857 197.096H102.524C102.667 197.096 102.81 196.988 102.846 196.881L116.437 159.269C116.472 159.161 116.472 159.054 116.401 158.946C116.329 158.839 116.222 158.803 116.115 158.803H88.5762C88.4331 158.803 88.2901 158.911 88.2543 159.018L74.6638 196.63C74.6281 196.737 74.628 196.845 74.6996 196.952C74.7711 197.06 74.8784 197.096 74.9857 197.096ZM102.274 196.415H75.4506L88.7908 159.484H115.614L102.274 196.415Z" fill="#231A47"/>
<path d="M67.5466 200.678H128.275V200.427C128.275 197.633 126.021 195.376 123.232 195.376H72.5536C69.764 195.376 67.5108 197.633 67.5108 200.427V200.678H67.5466Z" fill="#231F20"/>
<path d="M67.5466 201H128.275C128.454 201 128.632 200.857 128.632 200.642V200.391C128.632 197.418 126.236 195.018 123.268 195.018H72.5894C69.621 195.018 67.2247 197.418 67.2247 200.391V200.642C67.189 200.857 67.332 201 67.5466 201ZM127.953 200.319H67.9043C67.9758 197.776 70.0501 195.734 72.5894 195.734H123.268C125.807 195.734 127.881 197.776 127.953 200.319Z" fill="#231A47"/>
<path d="M95.7294 139.926C93.6949 139.926 92.0456 138.274 92.0456 136.236C92.0456 134.198 93.6949 132.547 95.7294 132.547C97.7638 132.547 99.4131 134.198 99.4131 136.236C99.4131 138.274 97.7638 139.926 95.7294 139.926Z" fill="white"/>
<path d="M95.7293 140.248C97.9467 140.248 99.7349 138.457 99.7349 136.236C99.7349 134.015 97.9467 132.224 95.7293 132.224C93.5119 132.224 91.7236 134.015 91.7236 136.236C91.7236 138.457 93.5119 140.248 95.7293 140.248ZM95.7293 132.905C97.5532 132.905 99.0554 134.409 99.0554 136.236C99.0554 138.063 97.5532 139.567 95.7293 139.567C93.9053 139.567 92.4031 138.063 92.4031 136.236C92.4031 134.373 93.9053 132.905 95.7293 132.905Z" fill="#231A47"/>
</svg>
